<svg version="1.2" xmlns="http://www.w3.org/2000/svg" viewBox="0 0 276 164" width="276" height="164">
	<title>12126920_4898591-svg</title>
	<style>
		tspan { white-space:pre } 
		.s0 { fill: #4d2557 } 
		.s1 { fill: #d886af } 
		.s2 { fill: #e7eef9 } 
		.s3 { fill: #37153f } 
		.t4 { font-size: 25px;fill: #4d2557;font-weight: 300;font-family: "' Quicksand" } 
		.t5 { font-size: 25px;fill: #d886af;font-weight: bold;font-family: "' Quicksand" } 
	</style>
	<g id="BACKGROUND">
	</g>
	<g id="OBJECTS">
		<g id="Layer">
			<g id="Layer">
				<g id="Layer">
					<g id="Layer">
						<g id="Layer">
							<path id="Layer" class="s0" d="m70.5 76.8c5.1 18.2 8.6 37 10.4 55.9 17.5 4.1 35.4 10.6 49.8 21.9 0-17.5 0-58.8 0-58.8 0 0-9.8-8.1-22.7-12.7-12-4.3-24.8-6.7-37.5-6.3z"/>
						</g>
						<path id="Layer" class="s1" d="m130.7 94c0 0-17.7-18.2-54.9-19.6l-1.4-6.1c0 0 43.4 2.6 56.3 25.7z"/>
						<path id="Layer" class="s2" d="m130.7 90.7c0 0-14.3-21.3-51.2-25l-1.1-5.8c0 0 35.1 3.3 52.3 30.8z"/>
					</g>
					<g id="Layer">
						<g id="Layer">
							<path id="Layer" class="s3" d="m190.9 76.8c-5.2 18.2-8.6 37-10.4 55.9-17.6 4.1-35.5 10.6-49.8 21.9 0-17.5 0-58.8 0-58.8 0 0 9.7-8.1 22.6-12.7 12.1-4.3 24.8-6.7 37.6-6.3z"/>
						</g>
						<path id="Layer" class="s1" d="m130.7 94c0 0 17.6-18.2 54.8-19.6l1.4-6.1c0 0-43.4 2.6-56.2 25.7z"/>
						<path id="Layer" class="s2" d="m130.7 90.7c0 0 14.3-21.3 51.1-25l1.2-5.8c0 0-35.2 3.3-52.3 30.8z"/>
					</g>
				</g>
				<g id="Layer">
					<path id="Layer" fill-rule="evenodd" class="s1" d="m117.5 60.6c-2.8 0-5-2.3-5-5 0-2.7 2.2-4.9 5-4.9 2.7 0 4.9 2.2 4.9 4.9 0 2.7-2.2 5-4.9 5zm0-8.6c-2 0-3.6 1.6-3.6 3.6 0 2 1.6 3.6 3.6 3.6 1.9 0 3.5-1.6 3.5-3.6 0-2-1.6-3.6-3.5-3.6z"/>
				</g>
				<g id="Layer">
					<path id="Layer" fill-rule="evenodd" class="s2" d="m158.4 56.3c-3.6 0-6.5-2.9-6.5-6.4 0-3.6 2.9-6.4 6.5-6.4 3.5 0 6.4 2.8 6.4 6.4 0 3.5-2.9 6.4-6.4 6.4zm0-11.5c-2.8 0-5.1 2.3-5.1 5.1 0 2.8 2.3 5 5.1 5 2.8 0 5-2.2 5-5 0-2.8-2.2-5.1-5-5.1z"/>
				</g>
				<g id="Layer">
					<path id="Layer" fill-rule="evenodd" class="s0" d="m95.3 55.1c-1.4 0-2.6-1.2-2.6-2.6 0-1.4 1.2-2.5 2.6-2.5 1.4 0 2.5 1.1 2.5 2.5 0 1.4-1.1 2.6-2.5 2.6zm0-3.8c-0.7 0-1.2 0.6-1.2 1.2 0 0.7 0.5 1.2 1.2 1.2 0.6 0 1.2-0.5 1.2-1.2 0-0.6-0.6-1.2-1.2-1.2z"/>
				</g>
				<g id="Layer">
					<path id="Layer" class="s1" d="m142.1 36.3l-2.6-1.1c-0.3-0.2-0.6-0.5-0.7-0.9l-0.5-2.7c-0.2-1-1.5-1.3-2.1-0.6l-1.9 2.1c-0.2 0.3-0.6 0.5-1 0.4l-2.8-0.3c-1-0.1-1.7 1-1.2 1.8l1.5 2.4c0.2 0.4 0.2 0.8 0 1.2l-1.1 2.5c-0.5 0.9 0.4 1.9 1.3 1.7l2.8-0.6c0.3-0.1 0.8 0 1 0.3l2.1 1.9c0.7 0.6 1.9 0.2 2-0.8l0.3-2.8c0-0.4 0.2-0.8 0.6-1l2.4-1.3c0.9-0.5 0.8-1.8-0.1-2.2z"/>
				</g>
				<g id="Layer">
					<path id="Layer" class="s2" d="m110.5 16.7l-4 1.2c-0.6 0.2-1.2 0-1.7-0.3l-3.2-2.7c-1.1-0.9-2.9-0.1-2.9 1.4l-0.1 4.1c-0.1 0.6-0.4 1.2-0.9 1.5l-3.5 2.2c-1.2 0.8-1 2.7 0.4 3.2l3.9 1.5c0.6 0.2 1 0.6 1.1 1.2l1.1 4c0.4 1.5 2.2 1.8 3.2 0.7l2.5-3.3c0.4-0.5 0.9-0.7 1.5-0.7l4.2 0.2c1.5 0.1 2.4-1.6 1.6-2.8l-2.4-3.4c-0.3-0.5-0.4-1.1-0.2-1.7l1.6-3.9c0.5-1.4-0.8-2.8-2.2-2.4z"/>
				</g>
				<g id="Layer">
					<g id="Layer">
						<path id="Layer" class="s3" d="m133.1 68.8l-2.1 0.4c-0.3 0.1-0.6 0-0.8-0.3l-1.5-1.4c-0.6-0.6-1.5-0.2-1.6 0.5l-0.2 2.1c-0.1 0.3-0.2 0.6-0.5 0.7l-1.9 1c-0.6 0.3-0.6 1.3 0.1 1.6l1.9 0.9c0.3 0.1 0.4 0.4 0.5 0.7l0.3 2.1c0.2 0.7 1.1 1 1.6 0.4l1.4-1.5c0.3-0.2 0.6-0.3 0.8-0.3l2.1 0.3c0.8 0.1 1.3-0.7 1-1.3l-1.1-1.9c-0.1-0.2-0.1-0.6 0-0.8l1-1.9c0.3-0.7-0.3-1.5-1-1.3z"/>
					</g>
				</g>
				<g id="Layer">
					<path id="Layer" class="s3" d="m184.5 35.3l-2.7-1.6c-0.4-0.3-0.6-0.7-0.6-1.1l-0.2-3.2c0-1.1-1.4-1.7-2.2-1l-2.4 2c-0.4 0.3-0.9 0.4-1.3 0.3l-3-0.8c-1.1-0.3-2.1 0.8-1.7 1.8l1.2 3c0.2 0.4 0.1 0.8-0.1 1.2l-1.8 2.7c-0.6 0.9 0.2 2.2 1.3 2.1l3.1-0.2c0.5-0.1 0.9 0.1 1.2 0.5l2 2.4c0.7 0.9 2.1 0.6 2.4-0.5l0.8-3.1c0.1-0.4 0.4-0.8 0.8-0.9l3-1.1c1-0.4 1.2-1.9 0.2-2.5z"/>
				</g>
				<g id="Layer">
					<path id="Layer" class="s3" d="m142.8 53.7c0 0.7-0.5 1.3-1.2 1.3-0.7 0-1.2-0.6-1.2-1.3 0-0.6 0.5-1.2 1.2-1.2 0.7 0 1.2 0.6 1.2 1.2z"/>
				</g>
				<path id="Layer" class="s2" d="m86.7 34.1c0 0.7-0.5 1.3-1.2 1.3-0.7 0-1.3-0.6-1.3-1.3 0-0.7 0.6-1.2 1.3-1.2 0.7 0 1.2 0.5 1.2 1.2z"/>
				<path id="Layer" class="s2" d="m159.7 30.6c-1.4 0-2.6-1.1-2.6-2.5 0-1.4 1.2-2.6 2.6-2.6 1.4 0 2.5 1.2 2.5 2.6 0 1.4-1.1 2.5-2.5 2.5z"/>
				<path id="Layer" class="s1" d="m112.6 41.2c-1 0-1.9-0.9-1.9-2 0-1.1 0.9-2 1.9-2 1.1 0 2 0.9 2 2 0 1.1-0.9 2-2 2z"/>
			</g>
			<g id="Layer">
				<g id="Layer">
					<text id="AI" style="transform: matrix(1,0,0,1,56.721,193.816)" >
						<tspan x="0" y="0" class="t4">A</tspan><tspan  y="0" class="t4">I</tspan><tspan  y="0" class="t4">
</tspan>
					</text>
					<text id="BOOK" style="transform: matrix(1,0,0,1,181.713,193.816)" >
						<tspan x="0" y="0" class="t5">S</tspan><tspan  y="0" class="t5">t</tspan><tspan  y="0" class="t5">o</tspan><tspan  y="0" class="t5">r</tspan><tspan  y="0" class="t5">y
</tspan>
					</text>
				</g>
			</g>
		</g>
	</g>
</svg>